<mxfile host="app.diagrams.net" modified="2023-10-12T18:13:01.088Z" agent="Mozilla/5.0 (Windows NT 10.0; Win64; x64) AppleWebKit/537.36 (KHTML, like Gecko) Chrome/117.0.0.0 Safari/537.36" etag="0UZSyTlzWN-vZQkLWdlk" version="22.0.4" type="device">
  <diagram name="Page-1" id="Po5Km8ZeCA5UCwh9uSR4">
    <mxGraphModel dx="724" dy="374" grid="1" gridSize="10" guides="1" tooltips="1" connect="1" arrows="1" fold="1" page="1" pageScale="1" pageWidth="850" pageHeight="1100" math="0" shadow="0">
      <root>
        <mxCell id="0" />
        <mxCell id="1" parent="0" />
        <mxCell id="7gqt0PY7z3TmWNlQmAuE-3" value="" style="rounded=0;whiteSpace=wrap;html=1;" parent="1" vertex="1">
          <mxGeometry x="280" y="40" width="190" height="1490" as="geometry" />
        </mxCell>
        <mxCell id="oJB-THNjz2x2V4srmbNX-37" style="edgeStyle=orthogonalEdgeStyle;rounded=0;orthogonalLoop=1;jettySize=auto;html=1;exitX=0.5;exitY=0.5;exitDx=0;exitDy=0;exitPerimeter=0;entryX=0;entryY=0.5;entryDx=0;entryDy=0;" edge="1" parent="1" source="7gqt0PY7z3TmWNlQmAuE-1" target="7gqt0PY7z3TmWNlQmAuE-10">
          <mxGeometry relative="1" as="geometry" />
        </mxCell>
        <mxCell id="oJB-THNjz2x2V4srmbNX-38" style="edgeStyle=orthogonalEdgeStyle;rounded=0;orthogonalLoop=1;jettySize=auto;html=1;exitX=0.5;exitY=0.5;exitDx=0;exitDy=0;exitPerimeter=0;entryX=0;entryY=0.5;entryDx=0;entryDy=0;" edge="1" parent="1" source="7gqt0PY7z3TmWNlQmAuE-1" target="7gqt0PY7z3TmWNlQmAuE-12">
          <mxGeometry relative="1" as="geometry" />
        </mxCell>
        <mxCell id="oJB-THNjz2x2V4srmbNX-39" style="edgeStyle=orthogonalEdgeStyle;rounded=0;orthogonalLoop=1;jettySize=auto;html=1;exitX=0.5;exitY=0.5;exitDx=0;exitDy=0;exitPerimeter=0;entryX=0;entryY=0.5;entryDx=0;entryDy=0;" edge="1" parent="1" source="7gqt0PY7z3TmWNlQmAuE-1" target="7gqt0PY7z3TmWNlQmAuE-9">
          <mxGeometry relative="1" as="geometry" />
        </mxCell>
        <mxCell id="oJB-THNjz2x2V4srmbNX-44" style="edgeStyle=orthogonalEdgeStyle;rounded=0;orthogonalLoop=1;jettySize=auto;html=1;exitX=0.5;exitY=0.5;exitDx=0;exitDy=0;exitPerimeter=0;entryX=0;entryY=0.5;entryDx=0;entryDy=0;" edge="1" parent="1" source="7gqt0PY7z3TmWNlQmAuE-1" target="oJB-THNjz2x2V4srmbNX-16">
          <mxGeometry relative="1" as="geometry" />
        </mxCell>
        <mxCell id="oJB-THNjz2x2V4srmbNX-47" style="edgeStyle=orthogonalEdgeStyle;rounded=0;orthogonalLoop=1;jettySize=auto;html=1;exitX=0.5;exitY=0.5;exitDx=0;exitDy=0;exitPerimeter=0;entryX=0;entryY=0.5;entryDx=0;entryDy=0;" edge="1" parent="1" source="7gqt0PY7z3TmWNlQmAuE-1" target="oJB-THNjz2x2V4srmbNX-11">
          <mxGeometry relative="1" as="geometry" />
        </mxCell>
        <mxCell id="oJB-THNjz2x2V4srmbNX-48" style="edgeStyle=orthogonalEdgeStyle;rounded=0;orthogonalLoop=1;jettySize=auto;html=1;exitX=0.5;exitY=0.5;exitDx=0;exitDy=0;exitPerimeter=0;entryX=0;entryY=0.5;entryDx=0;entryDy=0;" edge="1" parent="1" source="7gqt0PY7z3TmWNlQmAuE-1" target="7gqt0PY7z3TmWNlQmAuE-8">
          <mxGeometry relative="1" as="geometry" />
        </mxCell>
        <mxCell id="oJB-THNjz2x2V4srmbNX-49" style="edgeStyle=orthogonalEdgeStyle;rounded=0;orthogonalLoop=1;jettySize=auto;html=1;exitX=0.5;exitY=0.5;exitDx=0;exitDy=0;exitPerimeter=0;entryX=0;entryY=0.5;entryDx=0;entryDy=0;" edge="1" parent="1" source="7gqt0PY7z3TmWNlQmAuE-1" target="7gqt0PY7z3TmWNlQmAuE-7">
          <mxGeometry relative="1" as="geometry" />
        </mxCell>
        <mxCell id="oJB-THNjz2x2V4srmbNX-51" style="edgeStyle=orthogonalEdgeStyle;rounded=0;orthogonalLoop=1;jettySize=auto;html=1;exitX=0.5;exitY=0.5;exitDx=0;exitDy=0;exitPerimeter=0;entryX=0;entryY=0.5;entryDx=0;entryDy=0;" edge="1" parent="1" source="7gqt0PY7z3TmWNlQmAuE-1" target="oJB-THNjz2x2V4srmbNX-10">
          <mxGeometry relative="1" as="geometry" />
        </mxCell>
        <mxCell id="oJB-THNjz2x2V4srmbNX-53" style="edgeStyle=orthogonalEdgeStyle;rounded=0;orthogonalLoop=1;jettySize=auto;html=1;exitX=0.5;exitY=0.5;exitDx=0;exitDy=0;exitPerimeter=0;entryX=0;entryY=0.5;entryDx=0;entryDy=0;" edge="1" parent="1" source="7gqt0PY7z3TmWNlQmAuE-1" target="oJB-THNjz2x2V4srmbNX-13">
          <mxGeometry relative="1" as="geometry" />
        </mxCell>
        <mxCell id="oJB-THNjz2x2V4srmbNX-54" style="edgeStyle=orthogonalEdgeStyle;rounded=0;orthogonalLoop=1;jettySize=auto;html=1;exitX=0.5;exitY=0.5;exitDx=0;exitDy=0;exitPerimeter=0;entryX=0;entryY=0.5;entryDx=0;entryDy=0;" edge="1" parent="1" source="7gqt0PY7z3TmWNlQmAuE-1" target="oJB-THNjz2x2V4srmbNX-27">
          <mxGeometry relative="1" as="geometry" />
        </mxCell>
        <mxCell id="oJB-THNjz2x2V4srmbNX-55" style="edgeStyle=orthogonalEdgeStyle;rounded=0;orthogonalLoop=1;jettySize=auto;html=1;exitX=0.5;exitY=0.5;exitDx=0;exitDy=0;exitPerimeter=0;entryX=0;entryY=0.5;entryDx=0;entryDy=0;" edge="1" parent="1" source="7gqt0PY7z3TmWNlQmAuE-1" target="oJB-THNjz2x2V4srmbNX-28">
          <mxGeometry relative="1" as="geometry" />
        </mxCell>
        <mxCell id="oJB-THNjz2x2V4srmbNX-57" style="edgeStyle=orthogonalEdgeStyle;rounded=0;orthogonalLoop=1;jettySize=auto;html=1;exitX=0.5;exitY=0.5;exitDx=0;exitDy=0;exitPerimeter=0;entryX=0;entryY=0.5;entryDx=0;entryDy=0;" edge="1" parent="1" source="7gqt0PY7z3TmWNlQmAuE-1" target="oJB-THNjz2x2V4srmbNX-26">
          <mxGeometry relative="1" as="geometry" />
        </mxCell>
        <mxCell id="oJB-THNjz2x2V4srmbNX-58" style="edgeStyle=orthogonalEdgeStyle;rounded=0;orthogonalLoop=1;jettySize=auto;html=1;exitX=0.5;exitY=0.5;exitDx=0;exitDy=0;exitPerimeter=0;entryX=0;entryY=0.5;entryDx=0;entryDy=0;" edge="1" parent="1" source="7gqt0PY7z3TmWNlQmAuE-1" target="oJB-THNjz2x2V4srmbNX-25">
          <mxGeometry relative="1" as="geometry" />
        </mxCell>
        <mxCell id="oJB-THNjz2x2V4srmbNX-59" style="edgeStyle=orthogonalEdgeStyle;rounded=0;orthogonalLoop=1;jettySize=auto;html=1;exitX=0.5;exitY=0.5;exitDx=0;exitDy=0;exitPerimeter=0;entryX=0;entryY=0.5;entryDx=0;entryDy=0;" edge="1" parent="1" source="7gqt0PY7z3TmWNlQmAuE-1" target="oJB-THNjz2x2V4srmbNX-20">
          <mxGeometry relative="1" as="geometry" />
        </mxCell>
        <mxCell id="oJB-THNjz2x2V4srmbNX-61" style="edgeStyle=orthogonalEdgeStyle;rounded=0;orthogonalLoop=1;jettySize=auto;html=1;exitX=0.5;exitY=0.5;exitDx=0;exitDy=0;exitPerimeter=0;entryX=0;entryY=0.5;entryDx=0;entryDy=0;" edge="1" parent="1" source="7gqt0PY7z3TmWNlQmAuE-1" target="oJB-THNjz2x2V4srmbNX-14">
          <mxGeometry relative="1" as="geometry" />
        </mxCell>
        <mxCell id="oJB-THNjz2x2V4srmbNX-63" style="edgeStyle=orthogonalEdgeStyle;rounded=0;orthogonalLoop=1;jettySize=auto;html=1;exitX=0.5;exitY=0.5;exitDx=0;exitDy=0;exitPerimeter=0;entryX=0;entryY=0.5;entryDx=0;entryDy=0;" edge="1" parent="1" source="7gqt0PY7z3TmWNlQmAuE-1" target="oJB-THNjz2x2V4srmbNX-18">
          <mxGeometry relative="1" as="geometry" />
        </mxCell>
        <mxCell id="oJB-THNjz2x2V4srmbNX-65" style="edgeStyle=orthogonalEdgeStyle;rounded=0;orthogonalLoop=1;jettySize=auto;html=1;exitX=0.5;exitY=0.5;exitDx=0;exitDy=0;exitPerimeter=0;entryX=0;entryY=0.5;entryDx=0;entryDy=0;" edge="1" parent="1" source="7gqt0PY7z3TmWNlQmAuE-1" target="oJB-THNjz2x2V4srmbNX-22">
          <mxGeometry relative="1" as="geometry" />
        </mxCell>
        <mxCell id="oJB-THNjz2x2V4srmbNX-66" style="edgeStyle=orthogonalEdgeStyle;rounded=0;orthogonalLoop=1;jettySize=auto;html=1;exitX=0.5;exitY=0.5;exitDx=0;exitDy=0;exitPerimeter=0;entryX=0;entryY=0.5;entryDx=0;entryDy=0;" edge="1" parent="1" source="7gqt0PY7z3TmWNlQmAuE-1" target="oJB-THNjz2x2V4srmbNX-19">
          <mxGeometry relative="1" as="geometry" />
        </mxCell>
        <mxCell id="oJB-THNjz2x2V4srmbNX-85" style="edgeStyle=orthogonalEdgeStyle;rounded=0;orthogonalLoop=1;jettySize=auto;html=1;exitX=0.5;exitY=0.5;exitDx=0;exitDy=0;exitPerimeter=0;entryX=0;entryY=0.5;entryDx=0;entryDy=0;" edge="1" parent="1" source="7gqt0PY7z3TmWNlQmAuE-1" target="oJB-THNjz2x2V4srmbNX-21">
          <mxGeometry relative="1" as="geometry" />
        </mxCell>
        <mxCell id="oJB-THNjz2x2V4srmbNX-88" style="edgeStyle=orthogonalEdgeStyle;rounded=0;orthogonalLoop=1;jettySize=auto;html=1;exitX=0.5;exitY=0.5;exitDx=0;exitDy=0;exitPerimeter=0;entryX=0;entryY=0.5;entryDx=0;entryDy=0;" edge="1" parent="1" source="7gqt0PY7z3TmWNlQmAuE-1" target="oJB-THNjz2x2V4srmbNX-87">
          <mxGeometry relative="1" as="geometry" />
        </mxCell>
        <mxCell id="oJB-THNjz2x2V4srmbNX-91" style="edgeStyle=orthogonalEdgeStyle;rounded=0;orthogonalLoop=1;jettySize=auto;html=1;exitX=0.5;exitY=0.5;exitDx=0;exitDy=0;exitPerimeter=0;entryX=0;entryY=0.5;entryDx=0;entryDy=0;" edge="1" parent="1" source="7gqt0PY7z3TmWNlQmAuE-1" target="oJB-THNjz2x2V4srmbNX-89">
          <mxGeometry relative="1" as="geometry" />
        </mxCell>
        <mxCell id="7gqt0PY7z3TmWNlQmAuE-1" value="User" style="shape=umlActor;verticalLabelPosition=bottom;verticalAlign=top;html=1;outlineConnect=0;" parent="1" vertex="1">
          <mxGeometry x="160" y="270" width="50" height="90" as="geometry" />
        </mxCell>
        <mxCell id="7gqt0PY7z3TmWNlQmAuE-4" value="Islamic App" style="text;html=1;strokeColor=none;fillColor=none;align=center;verticalAlign=middle;whiteSpace=wrap;rounded=0;" parent="1" vertex="1">
          <mxGeometry x="330" y="50" width="90" height="30" as="geometry" />
        </mxCell>
        <mxCell id="7gqt0PY7z3TmWNlQmAuE-5" value="&lt;font style=&quot;font-size: 10px;&quot;&gt;Read Quran Page&lt;/font&gt;" style="ellipse;whiteSpace=wrap;html=1;" parent="1" vertex="1">
          <mxGeometry x="330" y="80" width="90" height="50" as="geometry" />
        </mxCell>
        <mxCell id="7gqt0PY7z3TmWNlQmAuE-7" value="Search in quran" style="ellipse;whiteSpace=wrap;html=1;" parent="1" vertex="1">
          <mxGeometry x="330" y="141" width="110" height="40" as="geometry" />
        </mxCell>
        <mxCell id="7gqt0PY7z3TmWNlQmAuE-9" value="Get Aya tafseer &amp;amp; I3rab" style="ellipse;whiteSpace=wrap;html=1;" parent="1" vertex="1">
          <mxGeometry x="335" y="310" width="115" height="50" as="geometry" />
        </mxCell>
        <mxCell id="7gqt0PY7z3TmWNlQmAuE-10" value="Get Zekr by type" style="ellipse;whiteSpace=wrap;html=1;" parent="1" vertex="1">
          <mxGeometry x="330" y="370" width="100" height="50" as="geometry" />
        </mxCell>
        <mxCell id="7gqt0PY7z3TmWNlQmAuE-11" value="Search Zekr By Name" style="ellipse;whiteSpace=wrap;html=1;" parent="1" vertex="1">
          <mxGeometry x="330" y="430" width="100" height="50" as="geometry" />
        </mxCell>
        <mxCell id="7gqt0PY7z3TmWNlQmAuE-12" value="Resume quran Reading" style="ellipse;whiteSpace=wrap;html=1;" parent="1" vertex="1">
          <mxGeometry x="340" y="252.5" width="110" height="45" as="geometry" />
        </mxCell>
        <mxCell id="7gqt0PY7z3TmWNlQmAuE-13" value="QuranAya" style="swimlane;fontStyle=0;childLayout=stackLayout;horizontal=1;startSize=30;horizontalStack=0;resizeParent=1;resizeParentMax=0;resizeLast=0;collapsible=1;marginBottom=0;whiteSpace=wrap;html=1;" parent="1" vertex="1">
          <mxGeometry x="510" y="40" width="130" height="120" as="geometry" />
        </mxCell>
        <mxCell id="7gqt0PY7z3TmWNlQmAuE-14" value="Id" style="text;strokeColor=none;fillColor=none;align=left;verticalAlign=middle;spacingLeft=4;spacingRight=4;overflow=hidden;points=[[0,0.5],[1,0.5]];portConstraint=eastwest;rotatable=0;whiteSpace=wrap;html=1;" parent="7gqt0PY7z3TmWNlQmAuE-13" vertex="1">
          <mxGeometry y="30" width="130" height="30" as="geometry" />
        </mxCell>
        <mxCell id="7gqt0PY7z3TmWNlQmAuE-15" value="Number" style="text;strokeColor=none;fillColor=none;align=left;verticalAlign=middle;spacingLeft=4;spacingRight=4;overflow=hidden;points=[[0,0.5],[1,0.5]];portConstraint=eastwest;rotatable=0;whiteSpace=wrap;html=1;" parent="7gqt0PY7z3TmWNlQmAuE-13" vertex="1">
          <mxGeometry y="60" width="130" height="30" as="geometry" />
        </mxCell>
        <mxCell id="7gqt0PY7z3TmWNlQmAuE-16" value="Sura Number" style="text;strokeColor=none;fillColor=none;align=left;verticalAlign=middle;spacingLeft=4;spacingRight=4;overflow=hidden;points=[[0,0.5],[1,0.5]];portConstraint=eastwest;rotatable=0;whiteSpace=wrap;html=1;" parent="7gqt0PY7z3TmWNlQmAuE-13" vertex="1">
          <mxGeometry y="90" width="130" height="30" as="geometry" />
        </mxCell>
        <mxCell id="7gqt0PY7z3TmWNlQmAuE-8" value="Start/Resume Quran Khatma" style="ellipse;whiteSpace=wrap;html=1;" parent="1" vertex="1">
          <mxGeometry x="335" y="190" width="105" height="50" as="geometry" />
        </mxCell>
        <mxCell id="oJB-THNjz2x2V4srmbNX-10" value="Display nearst Mosque location" style="ellipse;whiteSpace=wrap;html=1;" vertex="1" parent="1">
          <mxGeometry x="307.5" y="700" width="142.5" height="60" as="geometry" />
        </mxCell>
        <mxCell id="oJB-THNjz2x2V4srmbNX-11" value="Generate reminder notification automatically of Azzan timing" style="ellipse;whiteSpace=wrap;html=1;" vertex="1" parent="1">
          <mxGeometry x="301.88" y="620" width="153.75" height="60" as="geometry" />
        </mxCell>
        <mxCell id="oJB-THNjz2x2V4srmbNX-13" value="Generate Qibla direction location" style="ellipse;whiteSpace=wrap;html=1;" vertex="1" parent="1">
          <mxGeometry x="317.5" y="770" width="125" height="50" as="geometry" />
        </mxCell>
        <mxCell id="oJB-THNjz2x2V4srmbNX-14" value="checking the Hijri calender" style="ellipse;whiteSpace=wrap;html=1;" vertex="1" parent="1">
          <mxGeometry x="303.75" y="1280" width="136.25" height="40" as="geometry" />
        </mxCell>
        <mxCell id="oJB-THNjz2x2V4srmbNX-16" value="Checking&amp;nbsp; Prayer Timings" style="ellipse;whiteSpace=wrap;html=1;" vertex="1" parent="1">
          <mxGeometry x="315" y="490" width="135" height="50" as="geometry" />
        </mxCell>
        <mxCell id="oJB-THNjz2x2V4srmbNX-18" value="change language" style="ellipse;whiteSpace=wrap;html=1;" vertex="1" parent="1">
          <mxGeometry x="310" y="1340" width="120" height="40" as="geometry" />
        </mxCell>
        <mxCell id="oJB-THNjz2x2V4srmbNX-19" value="Tafseer dreams" style="ellipse;whiteSpace=wrap;html=1;" vertex="1" parent="1">
          <mxGeometry x="312.5" y="1450" width="120" height="40" as="geometry" />
        </mxCell>
        <mxCell id="oJB-THNjz2x2V4srmbNX-20" value="Get Hadith" style="ellipse;whiteSpace=wrap;html=1;" vertex="1" parent="1">
          <mxGeometry x="312.5" y="1170" width="127.5" height="30" as="geometry" />
        </mxCell>
        <mxCell id="oJB-THNjz2x2V4srmbNX-21" value="Search about Hadith by Title or Rawi" style="ellipse;whiteSpace=wrap;html=1;" vertex="1" parent="1">
          <mxGeometry x="300" y="1210" width="150" height="50" as="geometry" />
        </mxCell>
        <mxCell id="oJB-THNjz2x2V4srmbNX-22" value="Translation" style="ellipse;whiteSpace=wrap;html=1;" vertex="1" parent="1">
          <mxGeometry x="310" y="1400" width="120" height="40" as="geometry" />
        </mxCell>
        <mxCell id="oJB-THNjz2x2V4srmbNX-25" value="Reminder of missed prayers" style="ellipse;whiteSpace=wrap;html=1;" vertex="1" parent="1">
          <mxGeometry x="310" y="1100" width="135" height="50" as="geometry" />
        </mxCell>
        <mxCell id="oJB-THNjz2x2V4srmbNX-26" value="Inquries about fatwas" style="ellipse;whiteSpace=wrap;html=1;" vertex="1" parent="1">
          <mxGeometry x="317.5" y="1030" width="130" height="50" as="geometry" />
        </mxCell>
        <mxCell id="oJB-THNjz2x2V4srmbNX-27" value="Get Allah Names" style="ellipse;whiteSpace=wrap;html=1;" vertex="1" parent="1">
          <mxGeometry x="315" y="910" width="120" height="40" as="geometry" />
        </mxCell>
        <mxCell id="oJB-THNjz2x2V4srmbNX-28" value="Get Meanings&lt;br&gt;of Allah Names&amp;nbsp;" style="ellipse;whiteSpace=wrap;html=1;" vertex="1" parent="1">
          <mxGeometry x="315" y="970" width="120" height="40" as="geometry" />
        </mxCell>
        <mxCell id="oJB-THNjz2x2V4srmbNX-43" style="edgeStyle=orthogonalEdgeStyle;rounded=0;orthogonalLoop=1;jettySize=auto;html=1;exitX=0.5;exitY=0.5;exitDx=0;exitDy=0;exitPerimeter=0;entryX=0;entryY=0.4;entryDx=0;entryDy=0;entryPerimeter=0;" edge="1" parent="1" source="7gqt0PY7z3TmWNlQmAuE-1" target="7gqt0PY7z3TmWNlQmAuE-11">
          <mxGeometry relative="1" as="geometry" />
        </mxCell>
        <mxCell id="oJB-THNjz2x2V4srmbNX-50" style="edgeStyle=orthogonalEdgeStyle;rounded=0;orthogonalLoop=1;jettySize=auto;html=1;exitX=0.5;exitY=0.5;exitDx=0;exitDy=0;exitPerimeter=0;entryX=0.263;entryY=0.055;entryDx=0;entryDy=0;entryPerimeter=0;" edge="1" parent="1" source="7gqt0PY7z3TmWNlQmAuE-1" target="7gqt0PY7z3TmWNlQmAuE-3">
          <mxGeometry relative="1" as="geometry" />
        </mxCell>
        <mxCell id="oJB-THNjz2x2V4srmbNX-67" value="Azkar" style="swimlane;whiteSpace=wrap;html=1;" vertex="1" parent="1">
          <mxGeometry x="10" y="12.5" width="130" height="117.5" as="geometry" />
        </mxCell>
        <mxCell id="oJB-THNjz2x2V4srmbNX-69" value="Id" style="text;strokeColor=none;fillColor=none;align=left;verticalAlign=middle;spacingLeft=4;spacingRight=4;overflow=hidden;points=[[0,0.5],[1,0.5]];portConstraint=eastwest;rotatable=0;whiteSpace=wrap;html=1;" vertex="1" parent="oJB-THNjz2x2V4srmbNX-67">
          <mxGeometry x="10" y="27.5" width="110" height="30" as="geometry" />
        </mxCell>
        <mxCell id="oJB-THNjz2x2V4srmbNX-70" value="NameOf Zekr" style="text;strokeColor=none;fillColor=none;align=left;verticalAlign=middle;spacingLeft=4;spacingRight=4;overflow=hidden;points=[[0,0.5],[1,0.5]];portConstraint=eastwest;rotatable=0;whiteSpace=wrap;html=1;" vertex="1" parent="oJB-THNjz2x2V4srmbNX-67">
          <mxGeometry y="57.5" width="120" height="30" as="geometry" />
        </mxCell>
        <mxCell id="oJB-THNjz2x2V4srmbNX-72" value="ContentOfZekr" style="text;strokeColor=none;fillColor=none;align=left;verticalAlign=middle;spacingLeft=4;spacingRight=4;overflow=hidden;points=[[0,0.5],[1,0.5]];portConstraint=eastwest;rotatable=0;whiteSpace=wrap;html=1;" vertex="1" parent="oJB-THNjz2x2V4srmbNX-67">
          <mxGeometry y="87.5" width="100" height="30" as="geometry" />
        </mxCell>
        <mxCell id="oJB-THNjz2x2V4srmbNX-73" value="Prayer Timing" style="swimlane;whiteSpace=wrap;html=1;" vertex="1" parent="1">
          <mxGeometry x="510" y="190" width="140" height="120" as="geometry" />
        </mxCell>
        <mxCell id="oJB-THNjz2x2V4srmbNX-74" value="Id" style="text;strokeColor=none;fillColor=none;align=left;verticalAlign=middle;spacingLeft=4;spacingRight=4;overflow=hidden;points=[[0,0.5],[1,0.5]];portConstraint=eastwest;rotatable=0;whiteSpace=wrap;html=1;" vertex="1" parent="oJB-THNjz2x2V4srmbNX-73">
          <mxGeometry x="10" y="32.5" width="100" height="30" as="geometry" />
        </mxCell>
        <mxCell id="oJB-THNjz2x2V4srmbNX-76" value="location" style="text;strokeColor=none;fillColor=none;align=left;verticalAlign=middle;spacingLeft=4;spacingRight=4;overflow=hidden;points=[[0,0.5],[1,0.5]];portConstraint=eastwest;rotatable=0;whiteSpace=wrap;html=1;" vertex="1" parent="oJB-THNjz2x2V4srmbNX-73">
          <mxGeometry y="90" width="120" height="30" as="geometry" />
        </mxCell>
        <mxCell id="oJB-THNjz2x2V4srmbNX-77" value="Name" style="text;strokeColor=none;fillColor=none;align=left;verticalAlign=middle;spacingLeft=4;spacingRight=4;overflow=hidden;points=[[0,0.5],[1,0.5]];portConstraint=eastwest;rotatable=0;whiteSpace=wrap;html=1;" vertex="1" parent="oJB-THNjz2x2V4srmbNX-73">
          <mxGeometry y="60" width="120" height="30" as="geometry" />
        </mxCell>
        <mxCell id="oJB-THNjz2x2V4srmbNX-80" value="Allah Names" style="swimlane;whiteSpace=wrap;html=1;" vertex="1" parent="1">
          <mxGeometry x="10" y="155" width="140" height="120" as="geometry" />
        </mxCell>
        <mxCell id="oJB-THNjz2x2V4srmbNX-81" value="Id" style="text;strokeColor=none;fillColor=none;align=left;verticalAlign=middle;spacingLeft=4;spacingRight=4;overflow=hidden;points=[[0,0.5],[1,0.5]];portConstraint=eastwest;rotatable=0;whiteSpace=wrap;html=1;" vertex="1" parent="oJB-THNjz2x2V4srmbNX-80">
          <mxGeometry x="5" y="35" width="110" height="20" as="geometry" />
        </mxCell>
        <mxCell id="oJB-THNjz2x2V4srmbNX-82" value="Name" style="text;strokeColor=none;fillColor=none;align=left;verticalAlign=middle;spacingLeft=4;spacingRight=4;overflow=hidden;points=[[0,0.5],[1,0.5]];portConstraint=eastwest;rotatable=0;whiteSpace=wrap;html=1;" vertex="1" parent="oJB-THNjz2x2V4srmbNX-80">
          <mxGeometry y="55" width="120" height="30" as="geometry" />
        </mxCell>
        <mxCell id="oJB-THNjz2x2V4srmbNX-83" value="Meaning" style="text;strokeColor=none;fillColor=none;align=left;verticalAlign=middle;spacingLeft=4;spacingRight=4;overflow=hidden;points=[[0,0.5],[1,0.5]];portConstraint=eastwest;rotatable=0;whiteSpace=wrap;html=1;" vertex="1" parent="oJB-THNjz2x2V4srmbNX-80">
          <mxGeometry x="5" y="85" width="100" height="30" as="geometry" />
        </mxCell>
        <mxCell id="oJB-THNjz2x2V4srmbNX-87" value="Counter For Number of Tasbeeh" style="ellipse;whiteSpace=wrap;html=1;" vertex="1" parent="1">
          <mxGeometry x="305" y="556" width="155" height="50" as="geometry" />
        </mxCell>
        <mxCell id="oJB-THNjz2x2V4srmbNX-89" value="Generate Notification&lt;br&gt;for a prayer" style="ellipse;whiteSpace=wrap;html=1;" vertex="1" parent="1">
          <mxGeometry x="300" y="840" width="140" height="50" as="geometry" />
        </mxCell>
      </root>
    </mxGraphModel>
  </diagram>
</mxfile>
